<svg xmlns="http://www.w3.org/2000/svg" width="42.003" height="41" viewBox="0 0 42.003 41">
  <path id="Фигура_4" data-name="Фигура 4" d="M70,58.5a21.009,21.009,0,0,1,42-.117q0,.058,0,.116h0a21.008,21.008,0,0,1-42,0ZM83.317,40.741a19.724,19.724,0,0,0-6.277,4.131A19.193,19.193,0,0,0,72.808,51a18.92,18.92,0,0,0,0,15,19.179,19.179,0,0,0,4.232,6.125,19.709,19.709,0,0,0,6.277,4.131,20.264,20.264,0,0,0,15.37,0,19.786,19.786,0,0,0,3.779-2.063,18.587,18.587,0,0,1-8.779,2.184,17.884,17.884,0,1,1,0-35.758,18.586,18.586,0,0,1,8.777,2.183,19.823,19.823,0,0,0-3.777-2.062,20.264,20.264,0,0,0-15.37,0Zm3.73,2.414a17.028,17.028,0,0,0-5.423,3.57,16.58,16.58,0,0,0-3.658,5.293,16.354,16.354,0,0,0,0,12.963,16.58,16.58,0,0,0,3.658,5.293,17.028,17.028,0,0,0,5.423,3.57,17.513,17.513,0,0,0,13.28,0,17.056,17.056,0,0,0,3.4-1.875,15.865,15.865,0,0,1-7.35,1.789,15.263,15.263,0,1,1,0-30.516,15.865,15.865,0,0,1,7.35,1.789,17.057,17.057,0,0,0-3.4-1.875,17.513,17.513,0,0,0-13.28,0Zm3.73,2.414a14.362,14.362,0,0,0-4.568,3.01,13.978,13.978,0,0,0-3.083,4.46,13.8,13.8,0,0,0,0,10.923,13.991,13.991,0,0,0,3.083,4.46,14.374,14.374,0,0,0,4.568,3.009,14.785,14.785,0,0,0,11.191,0,14.364,14.364,0,0,0,3.011-1.69,13.148,13.148,0,0,1-5.921,1.4A12.8,12.8,0,0,1,86.11,58.566c0-.022,0-.044,0-.066s0-.044,0-.066A12.8,12.8,0,0,1,99.057,45.862a13.146,13.146,0,0,1,5.921,1.4,14.353,14.353,0,0,0-3.011-1.69,14.774,14.774,0,0,0-11.191,0ZM99.057,69.91a11.757,11.757,0,0,0,8.266-3.343,11.2,11.2,0,0,0,3.423-8c0-.024,0-.048,0-.072a11.2,11.2,0,0,0-3.424-8.068,11.907,11.907,0,0,0-15.408-.967,10.448,10.448,0,0,1,4.474-1,10.036,10.036,0,1,1,0,20.066,10.447,10.447,0,0,1-4.474-1A11.785,11.785,0,0,0,99.057,69.91Zm-2.669-2.6a9.08,9.08,0,0,0,6.378-2.579,8.654,8.654,0,0,0,0-12.452A9.182,9.182,0,0,0,90.661,51.7a7.742,7.742,0,0,1,3.059-.624,7.43,7.43,0,1,1,0,14.856,7.744,7.744,0,0,1-3.061-.625A9.1,9.1,0,0,0,96.388,67.306ZM93.72,64.7a6.4,6.4,0,0,0,4.491-1.817,6.093,6.093,0,0,0,0-8.769,6.463,6.463,0,0,0-8.807-.165,5.041,5.041,0,0,1,1.647-.275,4.825,4.825,0,1,1,0,9.647,5.041,5.041,0,0,1-1.647-.275A6.4,6.4,0,0,0,93.72,64.7ZM91.051,62.1a3.6,3.6,0,1,0-3.685-3.6A3.645,3.645,0,0,0,91.051,62.1Z" transform="translate(-70 -38)" fill="#5eb3e8"/>
</svg>
